<svg id="Hero_Symbol" data-name="Hero Symbol" xmlns="http://www.w3.org/2000/svg" viewBox="0 0 515.22 515.95">
	<defs>
		<style>.cls-1,.cls-2,.cls-3{fill:none;}.cls-1{stroke:#cbcbca;}.cls-1,.cls-2{stroke-linecap:round;stroke-linejoin:round;stroke-width:0.5px;}.cls-2{stroke:#f4af23;}.cls-4{fill:#0097a9;}.cls-5{fill:#f4af23;}.cls-6{fill:#59bec9;}.cls-7{fill:#fff;}</style>
	</defs>
	<g id="Graphism">
		<g id="Grey">
			<polygon class="cls-1" points="257.5 257.95 257.5 257.95 257.5 257.95 257.5 257.95"/>
			<path class="cls-1" d="M44.37,338.89l235.09-59.35L37.34,266.16A245.06,245.06,0,0,0,44.37,338.89Z" transform="translate(-21.96 -21.59)"/>
			<path class="cls-1" d="M279.46,279.54,220.2,44.1a241.87,241.87,0,0,0-149,110.84Z" transform="translate(-21.96 -21.59)"/>
			<path class="cls-1" d="M71.18,154.94A241.53,241.53,0,0,0,37.34,266.16l242.12,13.38L71.18,154.94Z" transform="translate(-21.96 -21.59)"/>
			<path class="cls-1" d="M276.65,118a159.61,159.61,0,0,1,85.68,22.63c76.52,45.78,101.57,145.27,55.86,221.91s-145,101.62-221.53,55.84a160.43,160.43,0,0,1-60.52-64.71l-80,20.21a241.39,241.39,0,0,0,98.94,114.26c114.94,68.75,264.2,31.07,332.79-83.93s31-264.58-83.9-333.34a240.55,240.55,0,0,0-147.47-33Z" transform="translate(-21.96 -21.59)"/>
		</g>
		<g id="Orange">
			<polygon class="cls-2" points="257.73 258 257.73 258 257.73 258 257.73 258"/>
			<path class="cls-2" d="M529.11,216.62l-249.42,63,256.88,14.19A260,260,0,0,0,529.11,216.62Z" transform="translate(-21.96 -21.59)"/>
			<path class="cls-2" d="M279.69,279.59l62.88,249.78a256.59,256.59,0,0,0,158.09-117.6Z" transform="translate(-21.96 -21.59)"/>
			<path class="cls-2" d="M500.66,411.77a256.2,256.2,0,0,0,35.91-118L279.69,279.59l221,132.18Z" transform="translate(-21.96 -21.59)"/>
			<path class="cls-2" d="M282.68,451a169.41,169.41,0,0,1-90.9-24C110.59,378.41,84,272.85,132.52,191.55s153.83-107.81,235-59.25A170.24,170.24,0,0,1,431.75,201l84.9-21.43a256.07,256.07,0,0,0-105-121.23c-121.94-72.94-280.29-33-353.07,89.05S25.69,428,147.63,501a255.18,255.18,0,0,0,156.46,35Z" transform="translate(-21.96 -21.59)"/>
		</g>
	</g>
</svg>